<svg width="89" height="45" viewBox="0 0 89 45" fill="none" xmlns="http://www.w3.org/2000/svg">
<rect width="89" height="45" rx="10" fill="#7296EC"/>
<path d="M21.632 28C21.5253 28 21.4347 27.9627 21.36 27.888C21.2853 27.8133 21.248 27.7227 21.248 27.616V17.2C21.248 17.0827 21.2853 16.9867 21.36 16.912C21.4347 16.8373 21.5253 16.8 21.632 16.8H26.272C27.136 16.8 27.84 16.9333 28.384 17.2C28.928 17.456 29.328 17.8133 29.584 18.272C29.8507 18.7307 29.984 19.264 29.984 19.872C29.984 20.2773 29.9093 20.6347 29.76 20.944C29.6213 21.2427 29.4453 21.488 29.232 21.68C29.0293 21.872 28.8267 22.0213 28.624 22.128C29.04 22.32 29.408 22.64 29.728 23.088C30.048 23.536 30.208 24.0693 30.208 24.688C30.208 25.328 30.064 25.8987 29.776 26.4C29.488 26.9013 29.0613 27.296 28.496 27.584C27.9307 27.8613 27.232 28 26.4 28H21.632ZM23.472 26.304H26.144C26.72 26.304 27.1573 26.1493 27.456 25.84C27.7547 25.52 27.904 25.136 27.904 24.688C27.904 24.2187 27.7493 23.8293 27.44 23.52C27.1413 23.2107 26.7093 23.056 26.144 23.056H23.472V26.304ZM23.472 21.392H25.984C26.5493 21.392 26.9707 21.2587 27.248 20.992C27.536 20.7147 27.68 20.3573 27.68 19.92C27.68 19.472 27.536 19.1253 27.248 18.88C26.9707 18.624 26.5493 18.496 25.984 18.496H23.472V21.392ZM35.7048 28.16C34.8514 28.16 34.1314 28.0107 33.5448 27.712C32.9688 27.4133 32.5261 26.992 32.2168 26.448C31.9181 25.904 31.7474 25.2693 31.7048 24.544C31.6941 24.352 31.6888 24.1173 31.6888 23.84C31.6888 23.5627 31.6941 23.328 31.7048 23.136C31.7474 22.4 31.9234 21.7653 32.2328 21.232C32.5528 20.688 33.0008 20.2667 33.5768 19.968C34.1634 19.6693 34.8728 19.52 35.7048 19.52C36.5368 19.52 37.2408 19.6693 37.8168 19.968C38.4034 20.2667 38.8514 20.688 39.1608 21.232C39.4808 21.7653 39.6621 22.4 39.7048 23.136C39.7154 23.328 39.7208 23.5627 39.7208 23.84C39.7208 24.1173 39.7154 24.352 39.7048 24.544C39.6621 25.2693 39.4861 25.904 39.1768 26.448C38.8781 26.992 38.4354 27.4133 37.8488 27.712C37.2728 28.0107 36.5581 28.16 35.7048 28.16ZM35.7048 26.576C36.2701 26.576 36.7074 26.4 37.0168 26.048C37.3261 25.6853 37.4968 25.1573 37.5288 24.464C37.5394 24.304 37.5448 24.096 37.5448 23.84C37.5448 23.584 37.5394 23.376 37.5288 23.216C37.4968 22.5333 37.3261 22.0107 37.0168 21.648C36.7074 21.2853 36.2701 21.104 35.7048 21.104C35.1394 21.104 34.7021 21.2853 34.3928 21.648C34.0834 22.0107 33.9128 22.5333 33.8808 23.216C33.8701 23.376 33.8648 23.584 33.8648 23.84C33.8648 24.096 33.8701 24.304 33.8808 24.464C33.9128 25.1573 34.0834 25.6853 34.3928 26.048C34.7021 26.4 35.1394 26.576 35.7048 26.576ZM41.8615 28C41.7655 28 41.6802 27.9627 41.6055 27.888C41.5308 27.8133 41.4935 27.728 41.4935 27.632V20.064C41.4935 19.9573 41.5308 19.8667 41.6055 19.792C41.6802 19.7173 41.7708 19.68 41.8775 19.68H43.2055C43.3228 19.68 43.4135 19.7173 43.4775 19.792C43.5522 19.8667 43.5895 19.9573 43.5895 20.064V26.384L43.0295 25.984L47.4295 19.936C47.4828 19.8613 47.5415 19.8027 47.6055 19.76C47.6695 19.7067 47.7548 19.68 47.8615 19.68H49.0775C49.1735 19.68 49.2588 19.7173 49.3335 19.792C49.4082 19.856 49.4455 19.936 49.4455 20.032V27.616C49.4455 27.7227 49.4082 27.8133 49.3335 27.888C49.2588 27.9627 49.1682 28 49.0615 28H47.7335C47.6162 28 47.5202 27.9627 47.4455 27.888C47.3815 27.8133 47.3495 27.7227 47.3495 27.616V21.584L47.9415 21.664L43.5095 27.744C43.4668 27.808 43.4082 27.8667 43.3335 27.92C43.2695 27.9733 43.1842 28 43.0775 28H41.8615ZM45.5575 18.592C44.9175 18.592 44.4055 18.4907 44.0215 18.288C43.6375 18.0853 43.3602 17.824 43.1895 17.504C43.0295 17.1733 42.9495 16.8213 42.9495 16.448C42.9495 16.3627 42.9762 16.2933 43.0295 16.24C43.0828 16.176 43.1575 16.144 43.2535 16.144H44.1655C44.2615 16.144 44.3362 16.176 44.3895 16.24C44.4428 16.2933 44.4695 16.3627 44.4695 16.448C44.4695 16.6827 44.5442 16.896 44.6935 17.088C44.8428 17.2693 45.1308 17.36 45.5575 17.36C46.0055 17.36 46.2988 17.2693 46.4375 17.088C46.5762 16.896 46.6455 16.6827 46.6455 16.448C46.6455 16.3627 46.6722 16.2933 46.7255 16.24C46.7788 16.176 46.8535 16.144 46.9495 16.144H47.8775C47.9735 16.144 48.0482 16.176 48.1015 16.24C48.1548 16.2933 48.1815 16.3627 48.1815 16.448C48.1815 16.8213 48.0962 17.1733 47.9255 17.504C47.7548 17.824 47.4775 18.0853 47.0935 18.288C46.7202 18.4907 46.2082 18.592 45.5575 18.592ZM54.0063 28C53.8889 28 53.7929 27.9627 53.7183 27.888C53.6543 27.8133 53.6223 27.7227 53.6223 27.616V21.376H51.0143C50.8969 21.376 50.8009 21.3387 50.7263 21.264C50.6623 21.1893 50.6303 21.0987 50.6303 20.992V20.064C50.6303 19.9573 50.6623 19.8667 50.7263 19.792C50.8009 19.7173 50.8969 19.68 51.0143 19.68H58.2783C58.3956 19.68 58.4916 19.7173 58.5663 19.792C58.6409 19.8667 58.6783 19.9573 58.6783 20.064V20.992C58.6783 21.0987 58.6409 21.1893 58.5663 21.264C58.4916 21.3387 58.3956 21.376 58.2783 21.376H55.6863V27.616C55.6863 27.7227 55.6489 27.8133 55.5743 27.888C55.4996 27.9627 55.4089 28 55.3023 28H54.0063ZM60.3146 28C60.2186 28 60.1333 27.9627 60.0586 27.888C59.984 27.8133 59.9466 27.728 59.9466 27.632V20.064C59.9466 19.9573 59.984 19.8667 60.0586 19.792C60.1333 19.7173 60.224 19.68 60.3306 19.68H61.6586C61.776 19.68 61.8666 19.7173 61.9306 19.792C62.0053 19.8667 62.0426 19.9573 62.0426 20.064V26.384L61.4826 25.984L65.8826 19.936C65.936 19.8613 65.9946 19.8027 66.0586 19.76C66.1226 19.7067 66.208 19.68 66.3146 19.68H67.5306C67.6266 19.68 67.712 19.7173 67.7866 19.792C67.8613 19.856 67.8986 19.936 67.8986 20.032V27.616C67.8986 27.7227 67.8613 27.8133 67.7866 27.888C67.712 27.9627 67.6213 28 67.5146 28H66.1866C66.0693 28 65.9733 27.9627 65.8986 27.888C65.8346 27.8133 65.8026 27.7227 65.8026 27.616V21.584L66.3946 21.664L61.9626 27.744C61.92 27.808 61.8613 27.8667 61.7866 27.92C61.7226 27.9733 61.6373 28 61.5306 28H60.3146Z" fill="white"/>
</svg>
