<svg width="78" height="44" viewBox="0 0 78 44" fill="none" xmlns="http://www.w3.org/2000/svg">
<g filter="url(#filter0_d_1_165)">
<rect x="4" width="70" height="36" rx="18" fill="#DCE6FF"/>
<circle cx="22" cy="18" r="15" fill="white"/>
<path d="M15.6823 22C15.5956 22 15.5219 21.974 15.4613 21.922C15.4093 21.8613 15.3833 21.7877 15.3833 21.701V21.155C15.3833 21.0597 15.4093 20.986 15.4613 20.934C15.5219 20.8733 15.5956 20.843 15.6823 20.843H16.1373C16.4146 20.843 16.6529 20.778 16.8523 20.648C17.0516 20.5093 17.2379 20.297 17.4113 20.011C17.5933 19.725 17.7796 19.3523 17.9703 18.893L20.5053 13.121C20.5313 13.043 20.5746 12.9867 20.6353 12.952C20.6959 12.9173 20.7609 12.9 20.8303 12.9H21.5323C21.6016 12.9 21.6623 12.926 21.7143 12.978C21.7663 13.03 21.7923 13.0907 21.7923 13.16C21.7923 13.1947 21.7879 13.2293 21.7793 13.264C21.7793 13.29 21.7706 13.316 21.7533 13.342L19.1013 19.348C18.8933 19.8073 18.6983 20.206 18.5163 20.544C18.3343 20.8733 18.1393 21.1463 17.9313 21.363C17.7233 21.5797 17.4806 21.74 17.2033 21.844C16.9259 21.948 16.5923 22 16.2023 22H15.6823ZM17.8923 19.79L14.3433 13.316C14.3173 13.264 14.3043 13.2163 14.3043 13.173C14.3043 13.1037 14.3303 13.043 14.3823 12.991C14.4429 12.9303 14.5079 12.9 14.5773 12.9H15.3053C15.3833 12.9 15.4483 12.9173 15.5003 12.952C15.5523 12.9867 15.5956 13.043 15.6303 13.121L18.5813 18.49L17.8923 19.79ZM25.6645 22.13C25.1359 22.13 24.6679 22.0693 24.2605 21.948C23.8532 21.8267 23.5109 21.662 23.2335 21.454C22.9562 21.2373 22.7352 20.9903 22.5705 20.713C22.4145 20.4357 22.3235 20.1367 22.2975 19.816C22.2889 19.738 22.3105 19.6773 22.3625 19.634C22.4232 19.5907 22.4925 19.569 22.5705 19.569H23.2205C23.2985 19.569 23.3679 19.5863 23.4285 19.621C23.4979 19.6557 23.5499 19.7293 23.5845 19.842C23.6885 20.1887 23.9139 20.4747 24.2605 20.7C24.6072 20.9167 25.0709 21.025 25.6515 21.025C26.0589 21.025 26.4272 20.9643 26.7565 20.843C27.0859 20.713 27.3502 20.531 27.5495 20.297C27.7489 20.0543 27.8485 19.764 27.8485 19.426C27.8485 18.9147 27.6622 18.5203 27.2895 18.243C26.9255 17.957 26.4272 17.814 25.7945 17.814H24.8585C24.7719 17.814 24.7025 17.788 24.6505 17.736C24.5985 17.6753 24.5725 17.6017 24.5725 17.515V17.06C24.5725 16.9647 24.5985 16.891 24.6505 16.839C24.7025 16.7783 24.7719 16.748 24.8585 16.748H25.7425C26.2799 16.748 26.7132 16.631 27.0425 16.397C27.3805 16.163 27.5495 15.7903 27.5495 15.279C27.5495 14.993 27.4629 14.746 27.2895 14.538C27.1249 14.33 26.9039 14.1697 26.6265 14.057C26.3492 13.9357 26.0372 13.875 25.6905 13.875C25.1619 13.875 24.7199 13.9703 24.3645 14.161C24.0092 14.3517 23.7882 14.6593 23.7015 15.084C23.6755 15.1793 23.6365 15.2487 23.5845 15.292C23.5325 15.3267 23.4675 15.344 23.3895 15.344H22.6875C22.6095 15.344 22.5402 15.318 22.4795 15.266C22.4275 15.214 22.4059 15.149 22.4145 15.071C22.4405 14.7417 22.5315 14.4383 22.6875 14.161C22.8435 13.875 23.0559 13.628 23.3245 13.42C23.6019 13.212 23.9399 13.0517 24.3385 12.939C24.7372 12.8263 25.1922 12.77 25.7035 12.77C26.4055 12.77 26.9862 12.887 27.4455 13.121C27.9049 13.355 28.2515 13.6583 28.4855 14.031C28.7195 14.395 28.8365 14.7893 28.8365 15.214C28.8365 15.474 28.8019 15.7297 28.7325 15.981C28.6719 16.2323 28.5635 16.462 28.4075 16.67C28.2602 16.878 28.0565 17.06 27.7965 17.216C28.1085 17.3633 28.3599 17.554 28.5505 17.788C28.7499 18.0133 28.8972 18.269 28.9925 18.555C29.0965 18.8323 29.1485 19.1313 29.1485 19.452C29.1485 19.9807 29.0055 20.4443 28.7195 20.843C28.4422 21.2417 28.0435 21.558 27.5235 21.792C27.0035 22.0173 26.3839 22.13 25.6645 22.13Z" fill="black"/>
<path d="M46.43 23C46.3433 23 46.2697 22.974 46.209 22.922C46.157 22.8613 46.131 22.7877 46.131 22.701V14.212C46.131 14.1167 46.157 14.043 46.209 13.991C46.2697 13.9303 46.3433 13.9 46.43 13.9H49.732C50.7113 13.9 51.4827 14.1383 52.046 14.615C52.6093 15.0917 52.891 15.7807 52.891 16.682C52.891 17.5833 52.6093 18.2723 52.046 18.749C51.4913 19.217 50.72 19.451 49.732 19.451H47.431V22.701C47.431 22.7877 47.4007 22.8613 47.34 22.922C47.2793 22.974 47.2057 23 47.119 23H46.43ZM49.667 18.359C50.2997 18.359 50.7763 18.216 51.097 17.93C51.4263 17.644 51.591 17.228 51.591 16.682C51.591 16.136 51.4307 15.72 51.11 15.434C50.7893 15.1393 50.3083 14.992 49.667 14.992H47.418V18.359H49.667ZM60.7378 13.9C60.8072 13.9 60.8678 13.926 60.9198 13.978C60.9718 14.03 60.9978 14.0907 60.9978 14.16C60.9978 14.2293 60.9848 14.29 60.9588 14.342L58.3068 20.348C58.0035 21.0327 57.7305 21.557 57.4878 21.921C57.2538 22.2763 56.9765 22.545 56.6558 22.727C56.3352 22.909 55.9192 23 55.4078 23H54.8878C54.8012 23 54.7275 22.974 54.6668 22.922C54.6148 22.8613 54.5888 22.7877 54.5888 22.701V22.155C54.5888 22.0683 54.6148 21.9947 54.6668 21.934C54.7275 21.8733 54.8012 21.843 54.8878 21.843H55.3428C55.6895 21.843 55.9755 21.739 56.2008 21.531C56.4348 21.3143 56.6732 20.9547 56.9158 20.452L53.5488 14.316C53.5228 14.264 53.5098 14.2163 53.5098 14.173C53.5098 14.1037 53.5358 14.043 53.5878 13.991C53.6485 13.9303 53.7135 13.9 53.7828 13.9H54.5238C54.6538 13.9 54.7578 13.9737 54.8358 14.121L57.5398 19.048L59.7108 14.121C59.7368 14.0517 59.7802 13.9997 59.8408 13.965C59.9015 13.9217 59.9665 13.9 60.0358 13.9H60.7378Z" fill="#A6A6A6"/>
</g>
<defs>
<filter id="filter0_d_1_165" x="0" y="0" width="78" height="44" filterUnits="userSpaceOnUse" color-interpolation-filters="sRGB">
<feFlood flood-opacity="0" result="BackgroundImageFix"/>
<feColorMatrix in="SourceAlpha" type="matrix" values="0 0 0 0 0 0 0 0 0 0 0 0 0 0 0 0 0 0 127 0" result="hardAlpha"/>
<feOffset dy="4"/>
<feGaussianBlur stdDeviation="2"/>
<feComposite in2="hardAlpha" operator="out"/>
<feColorMatrix type="matrix" values="0 0 0 0 0 0 0 0 0 0 0 0 0 0 0 0 0 0 0.25 0"/>
<feBlend mode="normal" in2="BackgroundImageFix" result="effect1_dropShadow_1_165"/>
<feBlend mode="normal" in="SourceGraphic" in2="effect1_dropShadow_1_165" result="shape"/>
</filter>
</defs>
</svg>
